<?xml version="1.0" encoding="utf-8"?>
<svg version="1.1" xmlns="http://www.w3.org/2000/svg" xmlns:xlink="http://www.w3.org/1999/xlink" x="0px" y="0px"
	 viewBox="0 0 100 100" style="enable-background:new 0 0 100 100;" xml:space="preserve">
   <title>Menu</title>
<path d="M85.9,26.6H13.1c-3.2,0-5.8-2.6-5.8-5.8s2.6-5.8,5.8-5.8h72.9c3.2,0,5.8,2.6,5.8,5.8S89.1,26.6,85.9,26.6z"/>
<path d="M85.9,53.7H13.1c-3.2,0-5.8-2.6-5.8-5.8s2.6-5.8,5.8-5.8h72.9c3.2,0,5.8,2.6,5.8,5.8S89.1,53.7,85.9,53.7z"/>
<path d="M85.9,80.8H13.1c-3.2,0-5.8-2.6-5.8-5.8c0-3.2,2.6-5.8,5.8-5.8h72.9c3.2,0,5.8,2.6,5.8,5.8C91.7,78.2,89.1,80.8,85.9,80.8z"
	/>
</svg>
