<svg id="Layer_1" xmlns="http://www.w3.org/2000/svg" viewBox="0 0 90 90"><style>.st0{fill:#fff}</style><path d="M85.4 0H4.5C2 0 0 2 0 4.5v81C0 88 2 90 4.5 90h81c2.5 0 4.5-2 4.5-4.5v-81C89.9 2 87.9 0 85.4 0z"/><path class="st0" d="M71.7 22.6c-2.3 1.3-4.8 2.3-7.4 2.8-2.2-2.3-5.2-3.7-8.5-3.7-6.4 0-11.6 5.2-11.6 11.6 0 .9.1 1.8.3 2.6-9.7-.5-18.2-5.1-23.9-12.1-1 1.7-1.6 3.7-1.6 5.8 0 4 2.1 7.5 5.2 9.6-1.9 0-3.7-.5-5.3-1.4v.1c0 5.5 4 10.3 9.3 11.3-.9.3-2 .4-3 .4-.8 0-1.5-.1-2.2-.2 1.5 4.6 5.7 7.9 10.8 8-4 3.1-9 5-14.4 5-.9 0-1.8-.1-2.7-.2 5.1 3.3 11.2 5.2 17.7 5.2 21.3 0 32.9-17.6 32.9-32.9V33c2.2-1.7 4.2-3.7 5.9-5.8-2 .9-4.3 1.5-6.6 1.8 2.4-1.4 4.3-3.7 5.1-6.4z"/></svg>