<svg xmlns="http://www.w3.org/2000/svg" viewBox="1884 2159.6 89.9 89.9"><path d="M1969.4 2159.6h-81c-2.5 0-4.5 2-4.5 4.5v81c0 2.5 2 4.5 4.5 4.5h81c2.5 0 4.5-2 4.5-4.5v-81c0-2.5-2-4.5-4.5-4.5zm-53.3 67.5c-12.5 0-22.5-10.1-22.5-22.5s10.1-22.5 22.5-22.5c6.1 0 11.2 2.2 15.1 5.9l-6.1 5.9c-1.7-1.6-4.6-3.5-9-3.5-7.7 0-14 6.4-14 14.2s6.3 14.2 14 14.2c8.9 0 12.3-6.4 12.8-9.7h-12.8v-7.7h21.3c.2 1.1.4 2.3.4 3.7-.1 12.9-8.7 22-21.7 22zm48.3-19.3h-6.4v6.4h-6.4v-6.4h-6.4v-6.4h6.4v-6.4h6.4v6.4h6.4v6.4z"/></svg>