<svg id="Layer_1" xmlns="http://www.w3.org/2000/svg" viewBox="0 0 90 90"><style>.st0{fill:#fff}</style><path d="M83.3 0H6.6C2.9 0 0 2.9 0 6.5v77C0 87.1 3 90 6.6 90h76.7c3.7 0 6.7-2.9 6.7-6.5v-77C90 2.9 87 0 83.3 0z"/><path class="st0" d="M57.4 35.8c-5 0-8.3 2.7-9.6 5.3h-.2v-4.4h-9.8v32.9H48V53.3c0-4.3.8-8.4 6.1-8.4 5.2 0 5.3 4.9 5.3 8.7v16H69.7V51.5c0-8.9-1.9-15.7-12.3-15.7zM21.1 36.7h10.2v32.9H21.1zM26.2 20.4c-3.2 0-5.9 2.6-5.9 5.9 0 3.2 2.6 5.9 5.9 5.9 3.3 0 6-2.7 5.9-5.9 0-3.2-2.6-5.9-5.9-5.9z"/></svg>