<svg id="Layer_1" xmlns="http://www.w3.org/2000/svg" viewBox="0 0 89.9 89.9"><style>.st0{fill:#fff}</style><path d="M85.4 0h-81C1.9 0-.1 2-.1 4.5v81c0 2.5 2 4.5 4.5 4.5h81c2.5 0 4.5-2 4.5-4.5v-81c0-2.5-2-4.5-4.5-4.5z"/><path class="st0" d="M73.9 35.4h-6.4v6.4h-6.4v6.4h6.4v6.4h6.4v-6.4h6.5v-6.4h-6.5zM32 41.8v7.7h12.8c-.5 3.3-3.9 9.7-12.8 9.7-7.7 0-14-6.4-14-14.2s6.3-14.2 14-14.2c4.4 0 7.3 1.9 9 3.5l6.1-5.9c-3.9-3.7-9-5.9-15.1-5.9C19.6 22.5 9.5 32.6 9.5 45s10 22.5 22.5 22.5c13 0 21.6-9.1 21.7-22 0-1.4-.2-2.6-.4-3.7H32z"/></svg>