<svg id="Layer_1" xmlns="http://www.w3.org/2000/svg" viewBox="0 0 90 90"><style>.st0{fill:#fff}</style><path d="M85.4 0H4.5C2 0 0 2 0 4.5v81C0 88 2 90 4.5 90h81c2.5 0 4.5-2 4.5-4.5v-81C89.9 2 87.9 0 85.4 0z"/><path class="st0" d="M64.5 53.1c-2.7 0-5.2 1.2-6.8 3.1L34.3 46c0-.3.1-.7.1-1s0-.7-.1-1l23.3-10.2c1.6 1.9 4.1 3.1 6.8 3.1 4.9 0 8.9-4 8.9-8.9s-4-8.9-8.9-8.9-8.9 4-8.9 8.9c0 .4 0 .7.1 1L32.3 39.3c-1.6-1.9-4.1-3.1-6.8-3.1-4.9 0-8.9 4-8.9 8.9s4 8.9 8.9 8.9c2.7 0 5.2-1.2 6.8-3.1l23.3 10.2c0 .3-.1.7-.1 1 0 4.9 4 8.9 8.9 8.9s8.9-4 8.9-8.9-3.9-9-8.8-9z"/></svg>