<svg xmlns="http://www.w3.org/2000/svg" viewBox="2192.6 2159.6 90 90"><path d="M2278 2159.6h-80.9c-2.5 0-4.5 2-4.5 4.5v81c0 2.5 2 4.5 4.5 4.5h81c2.5 0 4.5-2 4.5-4.5v-81c-.1-2.5-2.1-4.5-4.6-4.5zm-18 33v1.5c0 15.3-11.6 32.9-32.9 32.9-6.5 0-12.6-1.9-17.7-5.2.9.1 1.8.2 2.7.2 5.4 0 10.4-1.9 14.4-5-5.1-.1-9.3-3.4-10.8-8 .7.1 1.4.2 2.2.2 1 0 2.1-.1 3-.4-5.3-1-9.3-5.8-9.3-11.3v-.1c1.6.9 3.4 1.4 5.3 1.4-3.1-2.1-5.2-5.6-5.2-9.6 0-2.1.6-4.1 1.6-5.8 5.7 7 14.2 11.6 23.9 12.1-.2-.8-.3-1.7-.3-2.6 0-6.4 5.2-11.6 11.6-11.6 3.3 0 6.3 1.4 8.5 3.7 2.6-.5 5.1-1.5 7.4-2.8-.8 2.7-2.7 5-5.1 6.4 2.3-.3 4.6-.9 6.6-1.8-1.7 2.1-3.7 4.1-5.9 5.8z"/></svg>