<svg data-name="Layer 1" xmlns="http://www.w3.org/2000/svg" viewBox="0 0 387.87 441.99"><path d="M201.06 441.99c-2-1.95-4.74-1.51-7.14-2.12-24-6.12-42.4-19.91-54.06-41.55-19.19-35.59-37.53-71.64-56.23-107.49q-12.33-23.65-24.65-47.31c-4.51-8.66-4.16-10.13 3.24-16.39 7-5.94 13.94-12.09 23-14.7 20.21-5.79 37.4-.65 51.57 14.71 3.17 3.44 6 7.17 9.73 11.62v-5.22q0-80.69.11-161.38c0-15.31 6.17-27.46 19.71-34.91 21.56-11.86 48.59 2.54 51.93 27.38a74.07 74.07 0 0 1 .65 9.88q.09 37.55 0 75.08v5.29a35.47 35.47 0 0 1 25.48-5.15 34.34 34.34 0 0 1 24.67 16.4c1.26 2 1.81 2.45 3.95.75 18.35-14.64 43.13-9.11 53.86 12 1.22 2.4 1.76 3.42 4.62 1.49 22.73-15.33 53.7-.33 56 27q.28 3.44.28 6.89c0 45.31.07 90.62-.07 135.93-.1 33.73-13.53 60.65-42 79.41a71.12 71.12 0 0 1-32.94 11.63c-.6.06-1.12.12-1.32.79zm1.86-289.67V81.11c0-4.17.12-8.36-.14-12.51-.61-9.69-8.39-18.32-17.27-19.41-9.83-1.21-18.42 4.5-21.77 14.43a31.54 31.54 0 0 0-1.31 10.21q0 92.58-.08 185.16c0 4.24-.85 7.83-5.17 9.41-4.49 1.64-7.62-.58-10.38-4-6.48-8.08-13.12-16-19.68-24-14.31-17.47-33.1-19.13-50.46-4.57-2 1.67-2.37 2.8-1.08 5.19 5.45 10.03 10.63 20.3 15.93 30.48 20.07 38.55 40 77.18 60.28 115.62 13.59 25.75 34.88 39.18 64.43 39 28.35-.18 56.69-.06 85 0 10.2 0 20.09-1.56 29.22-6.22 26.84-13.7 40-36.35 41.3-65.86.82-19.1.21-38.26.21-57.39v-84.17c0-10.46-6-19-14.7-21.57-12.86-3.71-25.26 5.67-25.77 19.65-.23 6.33 0 12.66-.11 19-.11 4.74-3.42 8-7.85 8s-7.81-3-7.91-7.85c-.18-9.2 0-18.41-.11-27.62a74 74 0 0 0-.5-9.89c-1.35-9.48-9.1-17-17.95-17.68s-17 5.12-20.13 14.4a30.61 30.61 0 0 0-1.29 9.78v31.51c0 5.86-3 9.33-7.79 9.4s-8.06-3.59-8.07-9.57v-41.87c0-13.39-9-23.06-21.09-22.91-11.79.14-19.61 9.07-19.64 22.51v45.75a20.45 20.45 0 0 1-.4 4.7c-.92 3.82-3.57 5.82-7.4 6.08a7.61 7.61 0 0 1-7.86-6.06 22.45 22.45 0 0 1-.38-5.13q-.1-40.43-.08-80.79zM44.96 35.52v165.73c4.92-5.06 9-9.55 13.44-13.77 3.55-3.41 8-3.35 11.2-.25s3.25 7.8-.09 11.56c-.2.22-.4.42-.61.62-8.74 8.75-17.46 17.52-26.25 26.22-4.55 4.51-8.57 4.52-13.1 0q-13.19-13.06-26.23-26.24c-4.12-4.17-4.33-8.67-.78-12.13s7.93-3.18 12.14 1c4.37 4.34 8.62 8.81 13.62 13.93V34.67c-3 2.94-5.6 5.58-8.26 8.21-2.14 2.13-4.19 4.36-6.45 6.36-3.58 3.19-8.06 3.06-11.2-.15a7.46 7.46 0 0 1-.09-10.86Q16.74 23.4 31.55 8.91a7.32 7.32 0 0 1 11.1.78c5.45 7.71 12.86 13.48 19.18 20.36 2.44 2.64 5.14 5 7.59 7.66 3.46 3.72 3.5 8.32.25 11.55s-7.76 3.22-11.52-.39c-4.31-4.17-8.42-8.51-13.19-13.35z" fill="#fff"/><path d="M178.53.05c39.75 0 69.37 28.44 70.7 64.3.27 7.35-4.3 11.84-10.29 10-4.62-1.43-5.61-5.15-5.83-9.49-.9-18.39-9.3-32.47-24.9-41.81-32.24-19.33-74.09 2.87-76.33 40.31-.08 1.29-.08 2.6-.26 3.87-.67 4.79-4 7.74-8.42 7.46s-7.51-3.65-7.45-8.46a64.5 64.5 0 0 1 12.46-38.3C141.58 9.67 159.84.64 178.53.05z" fill="#fff"/></svg>