<svg xmlns="http://www.w3.org/2000/svg" viewBox="0 0 50 50"><path d="M48.9 23.6L24.6 1.7c-.5-.4-1.1-.6-1.7-.6H3.5C2.1 1.1 1 2.2 1 3.6V23c0 .7.3 1.3.7 1.8l24 24.3c.5.5 1.1.7 1.8.7s1.3-.3 1.8-.8l19.8-21.8c.4-.5.7-1.1.6-1.8 0-.7-.3-1.3-.8-1.8zm-21.5 20L6 22V6.1h16l21.8 19.6-16.4 17.9z"/><circle cx="11.2" cy="11.4" r="2.6"/><path d="M15.6 28.4c.5.5 1.1.7 1.7.7s1.2-.3 1.7-.7l9.2-9.4c.9-.9.9-2.4 0-3.4-.9-.9-2.5-.9-3.4 0L15.6 25c-.9.9-.9 2.4 0 3.4zM22.1 35c.5.5 1.1.7 1.7.7.6 0 1.2-.3 1.7-.7l9.2-9.4c.9-.9.9-2.4 0-3.4-.5-.5-1.1-.7-1.7-.7-.6 0-1.2.3-1.7.7l-9.2 9.4c-.9 1-.9 2.5 0 3.4z"/></svg>