<svg xmlns="http://www.w3.org/2000/svg" viewBox="0 0 100 100"><title>Twitter</title><path d="M85.2 33.2v2.3c0 23.5-17.9 50.7-50.7 50.7-10.1 0-19.5-2.9-27.3-8 1.4.1 2.8.3 4.3.3 8.3 0 16-2.9 22.1-7.6-7.8-.1-14.4-5.3-16.7-12.4 1.1.3 2.3.3 3.3.3 1.6 0 3.2-.3 4.7-.6-8.2-1.6-14.3-8.8-14.3-17.4v-.3c2.4 1.4 5.2 2.1 8.1 2.3-4.8-3.2-8-8.6-8-14.9 0-3.3.9-6.3 2.4-9 8.8 10.7 22 17.9 36.8 18.6-.3-1.3-.5-2.7-.5-4 0-9.9 8-17.8 17.8-17.8 5.2 0 9.7 2.1 13 5.7 4-.8 7.8-2.3 11.4-4.3-1.3 4.2-4.2 7.7-7.8 9.9 3.5-.4 7.1-1.4 10.2-2.8-2.4 3.3-5.4 6.5-8.8 9z"/></svg>