<svg data-name="Calque 1" xmlns="http://www.w3.org/2000/svg" viewBox="0 0 636.43 516.95"><path d="M636.43 61.16a260.68 260.68 0 0 1-75 20.56 131 131 0 0 0 57.42-72.18 263.1 263.1 0 0 1-83 31.7 130.66 130.66 0 0 0-222.46 119c-108.45-5.42-204.64-57.4-269.03-136.38a130.69 130.69 0 0 0 40.41 174.26 130.55 130.55 0 0 1-59.14-16.38v1.63a130.68 130.68 0 0 0 104.71 128 132 132 0 0 1-34.4 4.63 125.47 125.47 0 0 1-24.58-2.43 130.63 130.63 0 0 0 121.93 90.63A261.91 261.91 0 0 1 31.16 460 278.23 278.23 0 0 1 0 458.21 369 369 0 0 0 200.13 517c240.16 0 371.44-199 371.44-371.49l-.44-16.9a260.63 260.63 0 0 0 65.3-67.45z" fill="#fff"/></svg>