<svg xmlns="http://www.w3.org/2000/svg" viewBox="0 0 100 100"><title>Zoom in on Image</title><path d="M93.4 86.5L74 67.1c5.4-6.8 8.3-15.3 8.3-24.1C82.3 21.3 64.7 3.7 43 3.7S3.8 21.3 3.8 43s17.6 39.3 39.3 39.3c8.4 0 16.6-2.7 23.4-7.8L86 94.1c1 1 2.3 1.6 3.8 1.6s2.8-.6 3.8-1.6c1.9-2.2 1.9-5.5-.2-7.6zM43.1 71.6c-15.8 0-28.6-12.8-28.6-28.6S27.2 14.4 43 14.4 71.7 27.2 71.7 43 58.9 71.6 43.1 71.6z"/><path d="M57 39H46.4V28.3c0-1.9-1.6-3.5-3.5-3.5s-3.5 1.6-3.5 3.5V39H28.8c-1.9 0-3.5 1.6-3.5 3.5s1.6 3.5 3.5 3.5h10.6v10.6c0 1.9 1.6 3.5 3.5 3.5s3.5-1.6 3.5-3.5V45.9H57c1.9 0 3.5-1.6 3.5-3.5S58.9 39 57 39z"/></svg>