<?xml version="1.0" encoding="utf-8"?>
<svg version="1.1" xmlns="http://www.w3.org/2000/svg" xmlns:xlink="http://www.w3.org/1999/xlink" x="0px" y="0px"
	 viewBox="0 0 90 90" style="enable-background:new 0 0 90 90;" xml:space="preserve">
   <title>email</title>
<path d="M85.4,0H4.5C2,0,0,2,0,4.5v81C0,88,2,90,4.5,90h81c2.5,0,4.5-2,4.5-4.5v-81C89.9,2,87.9,0,85.4,0z M71.4,67.8H18.6v-35
	l23.6,20.4c0.8,0.7,1.9,1.1,3.1,1.1c1.2,0,2.3-0.4,3.1-1.1l23-19.8V67.8z M71.4,22.6l-26,22.5L18.8,22.2h52.5V22.6z"/>
</svg>
