<svg height="60" viewBox="0 0 60 60" width="60" xmlns="http://www.w3.org/2000/svg"><path fill="#171A1D" d="m29 58.58 7.38-7.39a30.95 30.95 0 0 1 -7.38-13.35 30.95 30.95 0 0 1 -7.38 13.36l7.37 7.38zm1.4 1.41.01.01h-2.84l-7.37-7.38a30.95 30.95 0 0 1 -13.36 7.38h-6.84v-1.02a28.9 28.9 0 0 0 18.79-7.78l-18.79-18.79v-4.84l18.78-18.78a28.9 28.9 0 0 0 -18.78-7.77v-1.02h6.84a30.95 30.95 0 0 1 13.35 7.38l7.38-7.38h2.84l7.39 7.38a30.95 30.95 0 0 1 13.36-7.38h8.84v27.58-.01 32.43h-8.84a30.95 30.95 0 0 1 -13.37-7.4l-7.39 7.4zm-1.4-58.58-7.4 7.38a30.95 30.95 0 0 1 7.4 13.37 30.95 30.95 0 0 1 7.38-13.36l-7.38-7.4zm29-.41a28.9 28.9 0 0 0 -18.8 7.8l18.8 18.78v-26.56zm-20.2 9.2a28.9 28.9 0 0 0 -7.78 18.8h26.56l-18.78-18.79zm-7.78 20.8a28.9 28.9 0 0 0 7.77 18.79l18.79-18.79zm9.18 20.2a28.9 28.9 0 0 0 18.8 7.8v-26.6l-18.8 18.79zm-19-1.4a28.9 28.9 0 0 0 7.78-18.8h-26.57l18.8 18.8zm7.78-20.8a28.9 28.9 0 0 0 -7.78-18.8l-18.79 18.8z"/></svg>
