<svg fill="none" height="32" viewBox="0 0 32 32" width="32" xmlns="http://www.w3.org/2000/svg" xmlns:xlink="http://www.w3.org/1999/xlink"><radialGradient id="a" cx="16.5" cy="16.0474" gradientUnits="userSpaceOnUse" r="12.2758"><stop offset=".5" stop-color="#fde030"/><stop offset=".92" stop-color="#f7c02b"/><stop offset="1" stop-color="#f4a223"/></radialGradient><linearGradient id="b"><stop offset="0" stop-color="#ed7770"/><stop offset=".9" stop-color="#ed7770" stop-opacity="0"/></linearGradient><radialGradient id="c" cx="0" cy="0" gradientTransform="matrix(4.11032 0 0 3.6909 10.1636 16.5239)" gradientUnits="userSpaceOnUse" r="1" xlink:href="#b"/><radialGradient id="d" cx="29.3278" cy="547.231" gradientUnits="userSpaceOnUse" r="4.19397" xlink:href="#b"/><path d="m16.5 28.0948c-6.0129 0-12.5-3.7715-12.5-12.0474 0-8.27585 6.4871-12.0474 12.5-12.0474 3.3405 0 6.4224 1.09914 8.7069 3.10345 2.4784 2.19827 3.7931 5.30175 3.7931 8.94395 0 3.6423-1.3147 6.7242-3.7931 8.9224-2.2845 2.0043-5.3879 3.125-8.7069 3.125z" fill="url(#a)"/><path d="m26.8213 8.88574c1.1487 1.85346 1.7479 4.06036 1.7479 6.51506 0 3.6423-1.3147 6.7242-3.7931 8.9224-2.2845 2.0044-5.388 3.125-8.7069 3.125-3.8923 0-7.97417-1.584-10.38365-4.9439 2.31896 3.806 6.68105 5.5905 10.81465 5.5905 3.319 0 6.4224-1.1207 8.7069-3.125 2.4784-2.1983 3.7931-5.2802 3.7931-8.9224 0-2.7457-.7478-5.1854-2.1789-7.16166z" fill="#eb8f00"/><path d="m16.6726 20.4439c-.7715 0-1.5366-.1293-2.2629-.388-.8944-.3082-1.8664.1681-2.1746 1.0604-.1745.5043-.1034 1.0603.1918 1.5043.9268 1.4224 2.3923 2.1983 4.2457 2.1983 1.8535 0 3.319-.7759 4.2457-2.1983.5237-.7867.3082-1.8492-.4784-2.3729-.444-.2952-1-.3663-1.5043-.1918-.7263.2587-1.4914.388-2.263.388z" fill="#422b0d"/><path d="m10.1636 21.7156c2.083 0 3.7716-1.5921 3.7716-3.5561 0-1.9639-1.6886-3.556-3.7716-3.556-2.08293 0-3.77151 1.5921-3.77151 3.556 0 1.964 1.68858 3.5561 3.77151 3.5561z" fill="url(#c)" opacity=".8"/><path d="m23.1812 21.7156c2.083 0 3.7716-1.5921 3.7716-3.5561 0-1.9639-1.6886-3.556-3.7716-3.556s-3.7715 1.5921-3.7715 3.556c0 1.964 1.6885 3.5561 3.7715 3.5561z" fill="url(#d)" opacity=".8"/><path d="m25.9807 9.89862c-1.7694-.49785-3.069.94828-3.069.94828s-.1509-1.64009-1.6638-2.15518c-1.8147-.62284-3.7306.36854-3.8448 2.93968-.1293 2.9289 3.7457 6.7737 3.7457 6.7737s4.8103-1.2931 6.3857-4.0345c1.2824-2.2306-.2155-4.097-1.5538-4.47198z" fill="#f44336"/><path d="m25.9807 9.89881c-.2177-.05819-.4418-.08406-.6659-.07975.6336.42454 1.1357 1.01724 1.4482 1.71124.3039.7306.3837 1.6745-.1939 2.8017-1.2522 2.4504-5.1078 3.9677-5.3879 4.0733.3512-.0992 4.8469-1.3923 6.362-4.028 1.2737-2.2371-.2241-4.1035-1.5625-4.47849z" fill="#c62828"/><path d="m22.9094 11.1119c-.0129-.2242-.0474-.4483-.0991-.6681-.125-.63365-.5172-1.18322-1.0776-1.50865-.3836-.22414-.8082-.36638-1.2478-.42026 0 0 .6465.19612 1.1077 1.09052.2349.46979.375.98279.4095 1.50649-.0022.1918.0323.3793.1013.5582.0776.1788.2672.2844.4612.2543.2953-.0755.3599-.444.3448-.8125z" fill="#c62828"/><path d="m18.72 10.0839c.403-.5 1.0647-.9763 1.6983-.53664.3362.23491.3405.90084-.0711 1.20044-.694.5086-.7263.8427-.8039 1.1228-.0948.3341-.1552.7328-.4591.9009-.3038.1681-.5711 0-.7306-.4806-.2715-.75-.1336-1.5862.3664-2.2069z" fill="#ff847a"/><path d="m11.5692 8.64867c-1.74786.56681-2.02804 2.49133-2.02804 2.49133s-1.03448-1.29306-2.5862-.875c-1.8513.4871-2.89655 2.375-1.57543 4.5755 1.53017 2.5215 6.88357 3.5668 6.88357 3.5668s3.2867-3.7414 3.0798-6.8966c-.1703-2.56893-2.4526-3.29091-3.7737-2.86203z" fill="#f44336"/><path d="m11.569 8.64868c-.2134.06897-.4181.1681-.6056.2931.7629.00216 1.5086.21768 2.1552.62285.6594.43103 1.2478 1.18107 1.3943 2.44177.3169 2.735-2.0538 6.1337-2.237 6.3815.2392-.2759 3.2629-3.8448 3.0646-6.8793-.1681-2.56682-2.4504-3.2888-3.7715-2.85992z" fill="#c62828"/><path d="m9.68949 11.3662c-.13362-.1831-.28449-.3512-.45259-.5021-.45259-.4612-1.07974-.7069-1.72414-.6724-.44181.0258-.875.1401-1.27155.3405 0 0 .64655-.1961 1.52586.2953.45905.265.85776.6206 1.17673 1.0431.10345.1616.23707.2995.39439.4094.1638.1056.37931.0862.52371-.0452.1918-.2328.0431-.5733-.17241-.8686z" fill="#c62828"/><path d="m5.63818 12.8363c.00862-.181.04095-.3599.09483-.5323.08836-.3621.34482-.6617.6875-.8061.32974-.1034.78663-.0301.96336.2996.15733.2931.0431.6466-.0431.9698-.07759.3707-.12069.75-.12932 1.1293.00216.3104-.24568.5625-.55603.5669-.2931 0-.52155-.2544-.68534-.4979-.22845-.3319-.34483-.7263-.3319-1.1293z" fill="#ff847a"/></svg>