<svg fill="none" height="32" viewBox="0 0 32 32" width="32" xmlns="http://www.w3.org/2000/svg" xmlns:xlink="http://www.w3.org/1999/xlink"><radialGradient id="a" cx="16.5" cy="16.1585" gradientUnits="userSpaceOnUse" r="12.2758"><stop offset=".5" stop-color="#fde030"/><stop offset=".92" stop-color="#f7c02b"/><stop offset="1" stop-color="#f4a223"/></radialGradient><linearGradient id="b" gradientUnits="userSpaceOnUse" x1="16.5" x2="16.5" y1="28.2059" y2="4.11108"><stop offset="0" stop-color="#f4a223"/><stop offset=".08" stop-color="#f7c02b"/><stop offset=".54" stop-color="#fde030" stop-opacity="0"/></linearGradient><linearGradient id="c" gradientUnits="userSpaceOnUse" x1="10.3303" x2="10.2764" y1="25.5357" y2="18.3417"><stop offset="0" stop-color="#bf360c"/><stop offset="1" stop-color="#bf360c" stop-opacity=".2"/></linearGradient><radialGradient id="d" cx="0" cy="0" gradientTransform="matrix(12.7608 0 0 11.9951 11.7265 20.5574)" gradientUnits="userSpaceOnUse" r="1"><stop offset=".27" stop-color="#fff176"/><stop offset="1" stop-color="#ffc400"/></radialGradient><linearGradient id="e"><stop offset=".13" stop-color="#da6727"/><stop offset="1" stop-color="#ffc400"/></linearGradient><linearGradient id="f" gradientUnits="userSpaceOnUse" x1="11.259" x2="16.6879" xlink:href="#e" y1="22.9975" y2="20.3013"/><linearGradient id="g" gradientUnits="userSpaceOnUse" x1="10.9784" x2="11.0236" xlink:href="#e" y1="28.3505" y2="20.1672"/><path d="m16.5 28.2059c-6.0129 0-12.5-3.7715-12.5-12.0474 0-8.27586 6.4871-12.04742 12.5-12.04742 3.3405 0 6.4224 1.09914 8.7069 3.10345 2.4784 2.19828 3.7931 5.30177 3.7931 8.94397s-1.3147 6.7241-3.7931 8.9224c-2.2845 2.0043-5.3879 3.125-8.7069 3.125z" fill="url(#a)"/><path d="m16.5 28.2059c-6.0129 0-12.5-3.7715-12.5-12.0474 0-8.27586 6.4871-12.04742 12.5-12.04742 3.3405 0 6.4224 1.09914 8.7069 3.10345 2.4784 2.19828 3.7931 5.30177 3.7931 8.94397s-1.3147 6.7241-3.7931 8.9224c-2.2845 2.0043-5.3879 3.125-8.7069 3.125z" fill="url(#b)"/><path d="m26.8213 8.99683c1.1487 1.85347 1.7479 4.06037 1.7479 6.51507 0 3.6423-1.3147 6.7242-3.7931 8.9224-2.2845 2.0043-5.388 3.125-8.7069 3.125-3.8923 0-7.97417-1.584-10.38365-4.9439 2.31896 3.806 6.68105 5.5905 10.81465 5.5905 3.319 0 6.4224-1.1207 8.7069-3.125 2.4784-2.1983 3.7931-5.2802 3.7931-8.9224 0-2.7457-.7478-5.1854-2.1789-7.16167z" fill="#eb8f00"/><path d="m4.18945 18.79c.21552-.5625 1.16811-.5711 1.87285-.2306 1.36422.6616 1.20258 2.1099 1.88577 2.3987s2.84053-1.4806 5.87283-1.7608c.3405-.0323 2.3513-.2844 2.5496.5604.0776.334-.4914.3987-.4914.3987-1.2328.4569-2.4871.9224-3.5905 1.6444-1.2522.8168-2.34699 1.972-3.80173 2.3125-.56681.1315-1.2069.1121-1.66811-.2392-.57327-.4311-.70043-1.222-.90948-1.9095-.23922-.7867-.63362-1.5194-1.15517-2.1552" fill="url(#c)" opacity=".66"/><path d="m4.16396 18.7878c-.39224.4762.44181 1.7413.59052 2.3857.35776 1.5561 0 1.9397-.02802 3.3233-.02371 1.5216.43103 2.8017 1.59052 3.6185 1.09051.7737 2.29095.8621 3.97202.3664 1.681-.4957 2.8168-.7349 2.903-1.5625.0474-.3427-.1336-.6789-.4483-.8254.1681-.0798.3017-.2155.3772-.3858.4008-.9569-.3988-1.1595-.3988-1.1595.11-.1314.2026-.2758.2759-.431.2392-.4763.2004-1.1229-.4892-1.3341-.3168-.0969-.403-.0452-.403-.0452.3276-.3362.7198-.6056 1.153-.7867 1.1595-.4978 2.5345-.7995 2.8771-1.0905.4979-.431.5281-1.2607-.3513-1.5086-1.2629-.3707-3.5862.4914-4.9999 1.3901-1.41384.8987-2.71126 1.3836-3.14229 1.2198-.43104-.1638-.69828-.431-.86207-1.0776-.30388-1.2026-.53879-1.6681-1.05388-2.1185-.42672-.3664-1.26078-.3448-1.5625.0216z" fill="url(#d)"/><path d="m11.1725 23.4603s-.3168-.2156.9483-1.2263c.862-.6918 1.3599-.8168 2.3922-1.0776 2.0862-.5108 1.9547-1.1681 1.9547-1.1681.1121.9677-.8448 1.1832-1.5452 1.403-.0733.0216-.1423.0496-.2155.0668-2.3987.6121-3.2371 2.194-3.5345 2.0022z" fill="url(#f)"/><path d="m13.1381 25.8591c.1875-.3104.2392-.6875.1401-1.0367-.069-.2047-.2005-.3836-.3794-.5064.0259-.0345.0518-.0669.0755-.1057.1918-.2995.2198-.6767.0754-1.0021-.1638-.2565-.431-.4267-.7306-.4655.2047.0991.3578.2823.4181.5021.0345.2651-.0043.5367-.1078.7824-.1379.3362-.4461.5711-.806.6185-.5215.1034-.3621.319-.3621.319.0453.1724.6617.0129 1.1294-.3362.1314.0689.2306.1875.278.3275.0495.2177.0194.4483-.0841.6466-.1444.3168-.4246.5539-.7608.6465-.4633.1272-.3362.2975-.3362.2975s.0216.3663.9742-.2371c.112.2155.2607.6961-.0367 1.0065-1.0086 1.0625-3.98057 1.4719-3.98057 1.4719 1.50867 0 3.58187-.5819 4.22417-1.1142.25-.1961.3965-.4935.3987-.8103.028-.2953-.0819-.5884-.2953-.7953.0604-.0646.1164-.1336.166-.209z" fill="url(#g)"/><g fill="#422b0d"><path d="m19.3595 17.9709c-.0689-.0129-.1336-.041-.1875-.0862-.972-.7802-2.1314-1.2888-3.362-1.4785-1.2306-.2133-2.4936-.0969-3.6638.3362-.0647.0259-.1337.0345-.2026.0238-.1509-.0259-.2737-.138-.3147-.2867-.0409-.1465.0086-.3017.125-.3987 2.2845-1.8965 5.6724-1.5819 7.569.7026.1552.1875.2974.3858.4267.5905.0819.1272.0819.291 0 .4181-.084.1315-.2371.2004-.3901.1789z"/><path d="m20.2002 9.30737c.903 0 1.7242.76293 1.7242 2.03013 0 1.2673-.8212 2.0281-1.7242 2.0281s-1.7241-.763-1.7241-2.0281c0-1.265.8211-2.03013 1.7241-2.03013z"/><path d="m12.7368 7.34375c-.903 0-1.7241.76293-1.7241 2.02802 0 1.26513.8211 2.03013 1.7241 2.03013.9052 0 1.7242-.7629 1.7242-2.03013 0-1.26724-.819-2.02802-1.7242-2.02802z"/><path d="m11.3556 4.89342c-.097-.15949-.1099-.35776-.0345-.52802.0819-.17026.2435-.28664.431-.31035 1.1746-.18319 2.3729.09483 3.347.77371.3642.25.6875.55172.9612.89871.0173.02155.0323.04526.0474.07112.1466.22845.097.53017-.1142.70043-.2263.1875-.5582.18103-.7759-.01724l.0906-.14655-.1099.12931c-.944-.7888-2.125-1.23923-3.3535-1.27587-.2047 0-.3944-.10775-.4978-.28448z"/><path d="m22.8362 8.74902c.1595-.08836.2672-.25.2888-.43103.0129-.1875-.0668-.36854-.2155-.48276-.9332-.74353-2.1186-1.09914-3.3061-.98707-.4396.03664-.8707.14009-1.2802.30604l-.0775.03663c-.2393.12716-.3449.4138-.2457.66595.1056.27371.3922.42888.6789.36638v-.17241l.0301.1681c1.2069-.22414 2.4548-.03664 3.5431.53233.1789.10129.3966.10129.5755 0z"/></g></svg>