<svg fill="none" height="32" viewBox="0 0 32 32" width="32" xmlns="http://www.w3.org/2000/svg" xmlns:xlink="http://www.w3.org/1999/xlink"><linearGradient id="a" gradientUnits="userSpaceOnUse" x1="16.4988" x2="16.4988" y1="4.54606" y2="27.7825"><stop offset=".1378" stop-color="#dee1e3"/><stop offset=".707" stop-color="#8c9194"/><stop offset=".971" stop-color="#fff"/></linearGradient><linearGradient id="b" gradientUnits="userSpaceOnUse" x1="16.4991" x2="16.4991" y1="17.9998" y2="27.2167"><stop offset="0" stop-color="#54130e"/><stop offset=".4135" stop-color="#bd5106"/><stop offset=".4666" stop-color="#c55b05"/><stop offset=".7039" stop-color="#e48602"/><stop offset=".8897" stop-color="#f8a001"/><stop offset="1" stop-color="#fa0"/></linearGradient><linearGradient id="c" gradientUnits="userSpaceOnUse" x1="16.5101" x2="16.5101" y1="12.3525" y2="18.8987"><stop offset="0" stop-color="#54130e"/><stop offset=".1891" stop-color="#bd5106"/><stop offset=".2624" stop-color="#c55b05"/><stop offset=".5905" stop-color="#e48602"/><stop offset=".8475" stop-color="#f8a001"/><stop offset="1" stop-color="#fa0"/></linearGradient><linearGradient id="d" gradientUnits="userSpaceOnUse" x1="16.4988" x2="16.4988" y1="2.26182" y2="8.383"><stop offset="0" stop-color="#dee1e3"/><stop offset=".8536" stop-color="#fff"/></linearGradient><path d="m16.7853 2.29858c-11.29995 0-12.52768 2.21233-12.78286 2.66731l.55609 20.84981c0 2.258 3.31729 5.0939 11.94757 5.0939 8.6302 0 11.8608-3.1657 11.9354-5.0939 0-.0289.5585-20.84981.5585-20.84981s-.9172-2.66731-12.2147-2.66731z" fill="url(#a)"/><path d="m16.7853 3.09541c8.9023 0 11.0183 1.67549 11.4083 2.09918-.1059 3.93356-.5393 20.14441-.5513 20.59221-.0265.6235-.6572 1.6755-2.3447 2.5951-1.4468.7872-4.1478 1.726-8.794 1.726-8.18002 0-11.14825-2.5686-11.14825-4.2946v-.0217l-.54886-20.5922c.53683-.64757 2.77563-2.10399 11.97881-2.10399zm0-.79683c-11.29995 0-12.52768 2.21233-12.78286 2.66731l.55609 20.84981c0 2.258 3.31729 5.0939 11.94757 5.0939 8.6302 0 11.8608-3.1657 11.9354-5.0939 0-.0289.5585-20.84981.5585-20.84981s-.9172-2.66731-12.2147-2.66731z" fill="#424242" opacity=".2"/><path d="m16.4244 18.2374c-6.2421 0-11.30233-1.0544-11.30233-2.0943l.27684 6.7381c0 1.6995 3.24988 3.8035 11.10499 3.8035 7.8551 0 11.0255-2.3543 11.0929-3.8035 0-.0121.2792-2.5879.2792-6.7285-.0168 1.04-5.2214 2.0847-11.4516 2.0847z" fill="url(#b)"/><path d="m27.876 16.1431v.0103-.0052c.0026-.0026 0-.0026 0-.0051z" fill="#fff0ca"/><path d="m16.4341 14.1931c-6.247 0-11.31203.8642-11.31203 1.9283 0 1.064 5.06503 2.1449 11.31203 2.1449 6.2373 0 11.4468-1.0713 11.4636-2.1353v-.0096c-.0168-1.0616-5.2263-1.9283-11.4636-1.9283z" fill="url(#c)"/><path d="m28.9976 4.56379c0 1.41551-5.5946 2.41936-12.4988 2.41936-6.90419 0-12.4988-1.00145-12.4988-2.41936s5.59701-2.56379 12.4988-2.56379c6.9018 0 12.4988 1.14829 12.4988 2.56379z" fill="url(#d)"/><path d="m16.4988 2.79682c3.0308 0 5.9364.22629 8.1825.63794 2.2195.40684 3.1536.88108 3.4424 1.12181-.2431.19259-1.0447.65239-3.4545 1.05681-2.2051.36832-5.1059.57295-8.1704.57295s-5.9677-.20222-8.17044-.57295c-2.40973-.40202-3.21136-.86182-3.4545-1.05681.28887-.24073 1.22291-.71497 3.44246-1.12181 2.24598-.41165 5.15168-.63794 8.18248-.63794zm0-.79682c-6.90179 0-12.4988 1.14829-12.4988 2.56379 0 1.41551 5.59701 2.41936 12.4988 2.41936 6.9018 0 12.4988-1.00145 12.4988-2.41936s-5.597-2.56379-12.4988-2.56379z" fill="#424242" opacity=".2"/><g fill="#cfd6d5"><path d="m15.1382 16.6702.0746.1782 2.4121 5.8618 6.4902-.4743 2.0799-4.1574-2.039-5.4044-5.7896.0842z" opacity=".73"/><path d="m8.22224 14.6047-.02648.1925-.83053 6.2831 5.86427 2.8238 3.8757-2.5662.9269-5.7005-5.0626-2.8142z" opacity=".62"/></g></svg>