<?xml version="1.0" encoding="utf-8"?>
<!-- Generator: Adobe Illustrator 22.0.1, SVG Export Plug-In . SVG Version: 6.00 Build 0)  -->
<svg version="1.1" id="Layer_1" xmlns="http://www.w3.org/2000/svg" xmlns:xlink="http://www.w3.org/1999/xlink" x="0px" y="0px"
	 viewBox="0 0 274.4 110.9" style="enable-background:new 0 0 274.4 110.9;" xml:space="preserve">
<g>
	<path d="M240,61.5L234.6,49c-3.9,2.6-5.3,4.2-5.3,4.2l6,11.8C235.3,65.1,237.6,63,240,61.5z"/>
	<path d="M224.2,43.3l-4.2-8.1c1.9-2.2,6.3-5.5,6.3-5.5l3.8,8.7C230,38.4,226.8,40.5,224.2,43.3z"/>
	<path d="M213.6,22.8L201.9,0l11.6,0l7,16.4l0.1,0.2C220.7,16.6,217,19.1,213.6,22.8z"/>
	<path d="M247.9,89.6l-8.1-15.8c0,0,1.8-1.7,4.1-3.2l6.4,14.9C250.3,85.4,248.9,87.2,247.9,89.6z"/>
	<path d="M251.2,95.9l7.1,13.8h2.4l-7.5-17.4C253.3,92.3,252.2,93.6,251.2,95.9z"/>
</g>
<path d="M267.2,83.2c-0.2,0.2,0,0-0.2,0.2c-1.6,1.3-4.3,2.5-7.9,3.3l-0.6,0.2c0,0-1.1,0.5-4.4,4.3c0.2,0,0.1,0,0.4,0
	c8.2-0.5,14.8-2.1,17.5-4.3c0.3-0.2,0.1-0.1,0.3-0.3C271.5,84.7,270,83.3,267.2,83.2z"/>
<path d="M272.1,45c-3.1,4.1-14.6,7-28.4,7.4c-2.6,0.1-4,0.1-6.5,0c0,0-0.2,0-0.3,0l-1.6-4c0,0,1.1-0.8,2.5-1.5c1.7,0.1,2.5,0,4.3,0
	c11.5-0.4,19-3.3,22.5-6.7C264.7,40.1,270.1,41.3,272.1,45z"/>
<path d="M222.6,44.9c-2.8-0.7-5.6-1.5-7.6-2.4l-0.4-0.2c0,0-1.6,2.7-1.8,5.2l0.4,0.2c1.7,0.9,3.1,1.4,5.5,2.2
	C219.8,48.4,221.4,46.1,222.6,44.9z"/>
<path d="M247.5,90.7l-1.7-3.2c-0.3,0-0.2,0-0.5,0c-5.5-0.4-10.3-1.5-13.3-2.9c-0.3-0.1,0,0-0.3-0.2c-0.9,2.4-0.5,3.4-0.4,3.7
	c0.1,0.1-0.1-0.1,0.2,0.1c3.4,1.7,9,2.8,15.8,3L247.5,90.7z"/>
<path d="M244.7,70.1l1.5,3.5c0.8,0,1.4,0,2.2,0c11.9-0.1,21.4-2.3,24.1-5.7c-2.1-3.5-6.1-3.8-6.6-3.8c-3.2,2.7-9.8,4.8-19.1,4.8
	C246.8,68.8,246,69.1,244.7,70.1z"/>
<path d="M233,67.4c-4.7-1-8-2.3-10.5-3.9c-0.3-0.2-0.1,0-0.3-0.2c-1,2.3-1,3.8-0.9,4.7c0.3,0.2,0,0,0.3,0.2c2.1,1.3,4.3,2.3,8.1,3.3
	C231.6,68.8,231.9,68.4,233,67.4z"/>
<path d="M220.4,66.2c1-7.9,10-17.4,22.4-23.1c13.1-6,25.6-5.6,29.6,0.6l0.3,0.5c1-2.7,1.3-5.4,0.6-7.8c-2.5-8.9-17.1-10.3-32.7-3.1
	c-15.6,7.1-26.2,20.1-23.8,29c0.6,2.1,1.9,3.7,3.5,5L220.4,66.2z"/>
<path d="M272.7,66.7L273,67c0.8-2.3,0.9-4.4,0.3-6.4c-2.3-7.3-14.4-8-27.1-1.7c-12.7,6.3-21.1,17.3-18.8,24.6c0.5,1.7,1.6,3,3.1,4
	l-0.1-0.7c0.6-6.5,7.8-14.8,17.9-19.8C258.9,61.7,269.2,61.7,272.7,66.7z"/>
<path d="M272.8,85.5l0.1,0.2c0.5-1.8,0.6-3.5,0.3-5c-1.1-5.7-7.8-6.7-14.9-2c-7.1,4.6-11.9,13-10.8,18.8c0.3,1.3,0.8,2.4,1.6,3.2
	l0-0.6c0.5-5.1,4.5-11.4,10.2-15C265.3,81.3,271,81.5,272.8,85.5z"/>
<g>
	<g>
		<path d="M259.4,10.9c0,0-0.1-0.4-0.5-1.2c-0.2-0.4-0.4-0.7-0.4-0.7c-0.7-1.1-3.9-1.3-6.7-1.5c-1.4-0.1-4.2-0.9-5.6-1
			c-1.8-0.1-2.3,0-3.5,0.2c-1,0.2-3.9,1.4-4.8,1.9l-0.6,0.3c-20.6,7.8-33.5,23.2-30.2,32.9c0.8,2.3,2.4,4.1,4.7,5.4l0.2,0.1
			c1.3-8.5,12.7-20.3,29.1-26.5l0.5-0.2c1.7-0.6,1.4-0.1,3.1,0c2.2,0,2.2-0.2,5.6-1.4l7.3-2.6c0,0,1.4-0.5,2.2-1.6
			C260.3,13.9,259.9,12.5,259.4,10.9z M245.3,10.8c-1.8,0.6-2.9-0.8-2.9-0.7l-0.1-0.2c1.5-1.2,3.4-1.3,3.8-1.3
			c0.1,0,0.1,0.1,0.1,0.1c0,0,0,0.1,0,0.1C246.6,9.7,246.1,10.6,245.3,10.8z"/>
	</g>
</g>
<path d="M29.8,27.7h13L71,86.2H59l-6.1-13.5H19.4l-6.2,13.5H1.1L29.8,27.7z M48.4,63L36.3,36.8L24.1,63H48.4z"/>
<path d="M86.3,41.8h-0.2v44.4H76V27.7h15.3l18.2,43.4L128,27.7h15v58.6h-10.1V41.8h-0.2l-18.7,44.4H105L86.3,41.8z"/>
<path d="M176.7,27.7h13L218,86.2h-12l-6.1-13.5h-33.6l-6.2,13.5H148L176.7,27.7z M195.4,63l-12.2-26.1L171,63H195.4z"/>
</svg>
