<svg fill="none" height="32" viewBox="0 0 32 32" width="32" xmlns="http://www.w3.org/2000/svg" xmlns:xlink="http://www.w3.org/1999/xlink"><radialGradient id="a" cx="0" cy="0" gradientTransform="matrix(16.4019 0 0 17.7781 16.4695 18.9139)" gradientUnits="userSpaceOnUse" r="1"><stop offset=".3956" stop-color="#e1e7ea"/><stop offset=".9934" stop-color="#d6e1e6"/></radialGradient><path d="m28.5692 17.0595c.1439-.8613.74-3.9277.197-6.9386-.3461-1.91709-1.5433-4.42024-2.8795-5.68571-2.5789-2.44252-6.1707-3.43519-9.4746-3.43519-3.3038 0-6.7163.99267-9.29522 3.43519-1.33619 1.26547-2.53346 3.77114-2.8795 5.68571-.54307 3.0109.05304 6.0773.19701 6.9386.1945 1.1746-.32078 2.4729-.42182 3.6424-.10861 1.273.49255 2.2606 1.56857 2.9603.89669.5835 1.9424.8916 2.91234 1.3437 1.15433.5381.10609 2.4805.53296 3.4605.2147.4951.68452.8361 1.16946 1.076.6163.3082 1.3261.5002 1.9955.3309-.1011.0253.1919.6138.5784.8538.3536.2172.7906.4395 1.1973.5279.8082.1768 1.6089-.1213 2.1091-.3789.2728-.1415.591-.1415.8613 0 .5001.2576 1.3008.5557 2.1091.3789.6087-.1339 1.1518-.4951 1.5408-.9674.1819-.2223.4648-.3436.7502-.3234.8487.0556 2.147-.2904 2.7102-1.571.3158-.7123-.0025-1.5509.2072-2.2961.3561-1.2629 1.5988-1.5761 2.5991-2.1646 1.3261-.778 2.1091-1.6494 2.1445-2.877.0353-1.3034-.5961-2.9881-.4294-3.996z" fill="url(#a)"/><g fill="#424242"><path d="m13.4399 17.0097c.4961-1.8513-.4661-3.7177-2.149-4.1687-1.68298-.4509-3.4494.6844-3.94545 2.5358-.49606 1.8514.46611 3.7177 2.14906 4.1687 1.68299.4509 3.44939-.6844 3.94539-2.5358z"/><path d="m23.5077 19.5452c1.6829-.4509 2.6451-2.3173 2.149-4.1687-.496-1.8514-2.2624-2.9867-3.9454-2.5357-1.6829.4509-2.6451 2.3173-2.1491 4.1686.4961 1.8514 2.2625 2.9867 3.9455 2.5358z"/><path d="m14.4722 21.8914c0-1.119.9068-3.8924 2.0282-3.8924 1.1215 0 2.0283 2.7709 2.0283 3.8924 0 2.2758-2.0283.7249-2.0283.7249s-2.0282 1.6823-2.0282-.7249z"/></g><path d="m11.1002 29.9036c-.3031-.0581-.5911-.1516-.8487-.341.2147-.0505.4294-.1061.6264-.2021.49-.245.4774-.639.586-1.124.0934-.4243.1844-.8487.293-1.2705.0732-.2829.2602-.5532.5506-.5128.3638.0506.3991.3082.3385.6997-.0581.3637-.4976 2.7608-.4976 2.7633-.0202.1086-.7502.0354-.8209.0253-.0758-.0101-.1516-.0227-.2273-.0379z" fill="#8abfd1"/><path d="m22.0648 29.9036c.3031-.0581.5911-.1516.8487-.341-.2147-.0505-.4294-.1061-.6264-.2021-.49-.245-.4774-.639-.586-1.124-.0935-.4243-.1844-.8487-.293-1.2705-.0733-.2829-.2602-.5532-.5507-.5128-.3637.0506-.399.3082-.3384.6997.0581.3637.4976 2.7608.4976 2.7633.0202.1086.7502.0354.8209.0253.0758-.0101.1515-.0227.2273-.0379z" fill="#8abfd1"/><path d="m15.3535 31.1715s.5734-.7729.5936-1.3008c.0379-.9421.0909-2.2152.0909-2.9527 0-.293.1768-.5179.4724-.5179.293 0 .4572.1971.4572.4901 0 .0126.0681 1.7251.0681 2.9174 0 .5506.6164 1.3614.6164 1.3614-.2526-.1137-.6947-.3334-1.1493-.3132-.5759.0278-1.1493.3157-1.1493.3157z" fill="#8abfd1"/></svg>