<svg fill="none" height="32" viewBox="0 0 32 32" width="32" xmlns="http://www.w3.org/2000/svg" xmlns:xlink="http://www.w3.org/1999/xlink"><radialGradient id="a" cx="0" cy="0" gradientTransform="matrix(-18.7541229 -.08150349 .13373069 -30.77170941 16.0295 31.963)" gradientUnits="userSpaceOnUse" r="1"><stop offset=".3144" stop-color="#ff9800"/><stop offset=".6616" stop-color="#ff6d00"/><stop offset=".9715" stop-color="#f44336"/></radialGradient><radialGradient id="b" cx="0" cy="0" gradientTransform="matrix(-.19819022 19.62169911 -14.76684675 -.14915348 17.0828 13.3006)" gradientUnits="userSpaceOnUse" r="1"><stop offset=".2141" stop-color="#fff176"/><stop offset=".3275" stop-color="#fff27d"/><stop offset=".4868" stop-color="#fff48f"/><stop offset=".6722" stop-color="#fff7ad"/><stop offset=".7931" stop-color="#fff9c4"/><stop offset=".8221" stop-color="#fff8bd" stop-opacity=".804"/><stop offset=".8627" stop-color="#fff6ab" stop-opacity=".529"/><stop offset=".9101" stop-color="#fff38d" stop-opacity=".2088"/><stop offset=".9409" stop-color="#fff176" stop-opacity="0"/></radialGradient><path d="m8.94735 9.75921c-.15144 1.61539-.25772 4.47419.6961 5.69099 0 0-.44901-3.1404 3.57615-7.08054 1.6207-1.58616 1.9953-3.74354 1.4294-5.36158-.3215-.91662-.9086-1.67383-1.4188-2.202554-.2975-.310854-.069-.8236319.364-.8050338 2.6197.1169028 6.8654.8448868 8.6694 5.3722078.7918 1.98734.8502 4.04111.4729 6.1294-.2391 1.3338-1.0893 4.2988.8502 4.6628 1.3843.2604 2.0538-.8395 2.354-1.6313.1249-.3294.558-.4118.7918-.1488 2.338 2.6596 2.5373 5.792 2.0538 8.4888-.9353 5.2128-6.2145 9.0068-11.4592 9.0068-6.5518 0-11.76727-3.7489-13.11962-10.5345-.54466-2.7393-.26834-8.1593 3.95609-11.98523.31351-.28694.82629-.03188.78378.39854z" fill="url(#a)"/><path d="m19.7211 19.5074c-2.4151-3.1086-1.3338-6.6555-.7413-8.069.0797-.1859-.1328-.3613-.3002-.247-1.0389.7067-3.167 2.3699-4.158 4.7106-1.3418 3.1643-1.2461 4.7133-.4517 6.605.4782 1.1398-.0771 1.3816-.356 1.4241-.271.0425-.5208-.1382-.72-.3268-.5713-.5447-.9831-1.2541-1.1797-2.0192-.0425-.1648-.2577-.2099-.356-.0744-.7439 1.0282-1.1292 2.6781-1.1478 3.8445-.0584 3.6054 2.9199 6.5279 6.5227 6.5279 4.5406 0 7.8484-5.0215 5.2393-9.2193-.7572-1.2222-1.4692-2.0219-2.3513-3.1564z" fill="url(#b)"/></svg>